<svg width="82" height="82" viewBox="0 0 82 82" fill="none" xmlns="http://www.w3.org/2000/svg">
<g clip-path="url(#clip0_1_361)">
<path d="M81.98 31.7296C81.419 32.5314 80.6377 32.7519 79.6961 32.7519C70.3401 32.7318 60.9841 32.7318 51.6281 32.7318C49.8251 32.7318 49.2641 32.2107 49.2841 30.4067C49.3042 28.6028 49.0838 26.7787 49.5246 24.9948C50.6865 20.3446 53.5715 17.2979 58.2194 15.975C58.9807 15.7545 59.0208 15.5942 58.6 14.9728C57.8588 13.9105 57.4581 12.6678 57.378 11.385C57.2177 8.8995 57.0574 6.41405 58.4598 4.16912C60.1026 1.50327 62.4667 0.0200116 65.6321 -3.23873e-05C68.8175 -0.0200764 71.3418 1.383 72.8043 4.14908C74.7476 7.79708 74.5873 11.5854 72.5639 15.2134C72.2033 15.8548 72.5839 15.8347 72.9846 15.9349C77.2719 17.1175 80.1168 19.8235 81.5392 24.0327C81.7396 24.614 81.8397 25.2153 82 25.8166C81.98 27.7809 81.98 29.7653 81.98 31.7296ZM65.6521 29.3243C69.6189 29.3243 73.5856 29.3243 77.5724 29.3243C78.7344 29.3243 78.7545 29.3243 78.7344 28.1217C78.7344 27.6607 78.6743 27.2197 78.6342 26.7587C78.2536 22.4092 74.6274 19.0017 70.26 18.9616C67.1747 18.9415 64.0694 18.9616 60.9841 18.9616C59.8822 18.9616 58.8004 19.2021 57.8187 19.6832C54.2526 21.407 52.6098 24.3334 52.6299 28.242C52.6299 29.3243 52.6299 29.3243 53.6716 29.3243C57.6584 29.3243 61.6453 29.3243 65.6521 29.3243ZM70.6005 9.60104C70.6005 9.01977 70.6206 8.53871 70.6005 8.05765C70.5004 5.47198 68.3166 3.36736 65.6922 3.34732C63.0877 3.32727 60.8439 5.43189 60.7637 8.03761C60.7237 8.93959 60.7437 9.84157 60.7637 10.7436C60.8038 12.768 62.0459 14.5319 63.9091 15.2334C65.8124 15.955 67.8358 15.4739 69.2582 14.0107C70.4803 12.7279 70.7207 11.1645 70.6005 9.60104Z" fill="#4FFFCA"/>
<path d="M50.3059 81.98C49.5446 81.519 49.2441 80.8575 49.2842 79.9555C49.3843 78.0113 49.0838 76.067 49.5847 74.1428C50.7867 69.5527 53.6917 66.5862 58.2394 65.2833C58.9206 65.0829 59.0608 64.9426 58.6201 64.3212C57.8588 63.2388 57.4581 61.9761 57.378 60.6532C57.2377 58.2479 57.0775 55.8426 58.3596 53.6378C59.9423 50.9118 62.2864 49.3684 65.4317 49.2882C68.6572 49.188 71.1014 50.6713 72.8243 53.3772C74.2468 55.6221 74.1266 58.1076 73.9663 60.593C73.8661 62.0362 73.4053 63.3591 72.5639 64.5417C72.3035 64.9025 72.3235 65.0829 72.7843 65.2032C77.913 66.5661 80.8781 69.9536 81.98 75.0848C81.98 77.1895 81.9599 79.2941 82 81.3987C82 81.8798 81.8998 81.98 81.419 81.98C71.0613 81.98 60.6836 81.98 50.3059 81.98ZM65.6321 78.7329C69.679 78.7329 73.7259 78.7128 77.7728 78.7529C78.5541 78.7529 78.8346 78.5124 78.7344 77.7507C78.6743 77.1895 78.6543 76.6282 78.6142 76.087C78.2336 71.7575 74.5874 68.3501 70.2199 68.2899C67.1747 68.2498 64.1495 68.2498 61.1043 68.2899C59.3013 68.31 57.6584 68.8512 56.196 69.9536C53.6917 71.8177 52.5898 74.3633 52.5898 77.43C52.5898 78.7529 52.5898 78.7529 53.8519 78.7529C57.7987 78.7329 61.7054 78.7329 65.6321 78.7329ZM60.7437 58.6688C60.7437 59.2501 60.7237 59.7512 60.7437 60.2723C60.8439 62.838 62.9875 64.8624 65.6321 64.8624C68.3166 64.8825 70.4803 62.838 70.5805 60.2322C70.6206 59.2701 70.6005 58.308 70.5805 57.366C70.5204 55.3816 69.138 53.5977 67.2148 52.9563C65.2915 52.3149 63.1278 52.9563 61.8656 54.4796C60.8239 55.7223 60.6235 57.1856 60.7437 58.6688Z" fill="#4FFFCA"/>
<path d="M1.04178 81.98C0.260451 81.4989 -0.020028 80.7974 0.0200404 79.8754C0.100177 77.6304 -0.180302 75.3655 0.601032 73.1606C2.04349 69.0917 4.84828 66.4659 8.99536 65.3034C9.69656 65.1029 9.79673 64.9426 9.37601 64.3413C8.61471 63.2589 8.21403 61.9961 8.13389 60.6732C7.97362 58.2279 7.87345 55.7825 9.17567 53.5175C10.8585 50.6111 14.3846 48.8072 17.5299 49.3484C21.2563 49.9898 24.1012 52.6757 24.602 56.2034C24.9626 58.749 25.0227 61.3146 23.8207 63.6999C23.8006 63.7399 23.7806 63.8001 23.7606 63.8402C23.1395 65.0228 23.1395 65.0228 24.3816 65.4036C29.3501 66.9269 32.7559 71.517 32.796 76.7285C32.796 77.7908 32.7559 78.8531 32.816 79.9355C32.8561 80.8174 32.5355 81.4789 31.7943 81.9399C21.5167 81.98 11.2793 81.98 1.04178 81.98ZM16.3479 78.7329C17.6702 78.7329 19.0125 78.7329 20.3347 78.7329C23.0994 78.7329 25.8842 78.7128 28.6489 78.7529C29.29 78.7529 29.5304 78.5525 29.4703 77.9311C29.4102 77.2897 29.4102 76.6483 29.3501 76.0269C28.9294 71.7175 25.3032 68.3701 20.9758 68.31C17.9306 68.2699 14.9055 68.2699 11.8603 68.31C10.0371 68.33 8.3743 68.8913 6.89177 70.0137C4.28733 71.978 3.30565 74.6639 3.32568 77.8309C3.32568 78.5725 3.56609 78.7729 4.28733 78.7729C8.3142 78.7128 12.321 78.7329 16.3479 78.7329ZM21.3164 58.769C21.3164 58.288 21.3364 57.8069 21.3164 57.3259C21.2162 54.7602 19.0726 52.7358 16.4481 52.7157C13.7835 52.6957 11.5798 54.7402 11.4996 57.3259C11.4596 58.2278 11.4796 59.1298 11.4996 60.0318C11.5597 62.2968 12.9822 64.1007 15.1659 64.7021C17.2094 65.2633 19.4131 64.4014 20.5952 62.5974C21.3565 61.4349 21.3965 60.112 21.3164 58.769Z" fill="#4FFFCA"/>
<path d="M16.3679 32.7519C11.6799 32.7519 6.99194 32.7519 2.30393 32.7519C0.62106 32.7519 0.0200342 32.1907 0.0400684 30.507C0.0601026 28.723 -0.160274 26.9191 0.260445 25.1753C1.38236 20.4248 4.28732 17.3581 8.99536 15.9951C9.61642 15.8147 9.85683 15.7145 9.39604 15.053C8.61471 13.9506 8.21402 12.6879 8.13389 11.3649C7.95358 8.87949 7.83337 6.39404 9.21574 4.14911C10.8585 1.48326 13.2226 0 16.408 0C19.5935 0 22.0977 1.40308 23.5602 4.16915C25.4835 7.8372 25.3232 11.6055 23.2998 15.2334C23.0393 15.6945 23.1395 15.7746 23.6003 15.8949C28.7291 17.318 31.7943 20.6654 32.6758 25.9169C32.9763 27.6808 32.816 29.4847 32.7359 31.2686C32.6958 32.1706 31.9345 32.7118 30.8326 32.7118C28.5087 32.7318 26.2047 32.7118 23.8808 32.7118C21.3765 32.7519 18.8722 32.7519 16.3679 32.7519ZM16.388 29.3244C20.3948 29.3244 24.3816 29.3244 28.3885 29.3244C29.4703 29.3244 29.4904 29.3244 29.4703 28.2019C29.4703 27.6607 29.4102 27.1396 29.3501 26.6184C28.9494 22.4092 25.3032 19.0218 21.076 18.9817C17.9506 18.9416 14.8453 18.9616 11.72 18.9817C10.6181 18.9817 9.53628 19.2222 8.55461 19.7033C5.02859 21.407 3.36575 24.2933 3.36575 28.1819C3.36575 29.3444 3.36575 29.3444 4.48766 29.3444C8.4344 29.3244 12.4012 29.3244 16.388 29.3244ZM21.3364 9.5209C21.3364 9.03984 21.3565 8.55879 21.3364 8.07773C21.2363 5.47201 19.1126 3.38744 16.4481 3.34735C13.8236 3.28722 11.5597 5.45197 11.4796 8.07773C11.4596 8.95967 11.4596 9.8416 11.4796 10.7035C11.5397 13.0286 13.0623 14.8927 15.3061 15.4339C17.4097 15.955 19.6135 14.9328 20.7354 13.0086C21.3765 11.9061 21.3565 10.7035 21.3364 9.5209Z" fill="#4FFFCA"/>
<path d="M45.5778 10.4028C46.86 10.4028 48.1422 10.3828 49.4244 10.4028C50.5263 10.4229 51.2675 11.0041 51.3276 11.9262C51.4078 12.9083 50.7867 13.67 49.6247 13.7301C46.88 13.8704 44.1354 13.8704 41.3907 13.7301C40.2688 13.67 39.6677 12.9284 39.7278 11.9863C39.7679 11.0442 40.4891 10.4229 41.591 10.4229C42.9133 10.3828 44.2355 10.4028 45.5778 10.4028Z" fill="#4FFFCA"/>
<path d="M41.01 71.6372C39.6878 71.6372 38.3455 71.6573 37.0232 71.6372C35.8813 71.6172 35.1801 70.9758 35.1801 69.9936C35.1801 69.0114 35.8813 68.35 37.0232 68.35C39.7078 68.3299 42.3924 68.3299 45.077 68.35C46.1588 68.35 46.86 69.0114 46.88 69.9535C46.9001 70.9557 46.1989 71.6372 45.077 71.6372C43.7347 71.6573 42.3723 71.6372 41.01 71.6372Z" fill="#4FFFCA"/>
<path d="M13.7435 41.01C13.7435 42.3128 13.7635 43.6157 13.7435 44.9186C13.7234 46.041 13.0623 46.7826 12.1007 46.7826C11.139 46.7826 10.4378 46.041 10.4378 44.9186C10.4178 42.2728 10.4178 39.647 10.4378 37.0012C10.4378 35.8587 11.0989 35.1571 12.0806 35.1371C13.0623 35.1371 13.7234 35.8386 13.7234 36.9811C13.7635 38.3441 13.7435 39.6871 13.7435 41.01Z" fill="#4FFFCA"/>
<path d="M71.6423 41.0501C71.6423 42.3529 71.6624 43.6558 71.6423 44.9586C71.6223 46.0611 70.9211 46.8227 69.9595 46.8027C69.0178 46.7826 68.3367 46.0611 68.3367 44.9987C68.3166 42.3329 68.3166 39.667 68.3367 37.0012C68.3367 35.8787 69.0379 35.1571 70.0196 35.1772C70.9812 35.1772 71.6223 35.8787 71.6423 36.9811C71.6624 38.3241 71.6423 39.6871 71.6423 41.0501Z" fill="#4FFFCA"/>
<path d="M34.3386 13.7101C33.397 13.7101 32.6758 12.9885 32.6758 12.0464C32.6958 11.1645 33.4371 10.4229 34.2986 10.4229C35.2001 10.4229 35.9614 11.1845 35.9614 12.1065C35.9414 13.0085 35.2402 13.7101 34.3386 13.7101Z" fill="#4FFFCA"/>
</g>
<defs>
<clipPath id="clip0_1_361">
<rect width="82" height="82" fill="white"/>
</clipPath>
</defs>
</svg>
