<svg width="84" height="84" viewBox="0 0 84 84" fill="none" xmlns="http://www.w3.org/2000/svg">
<g clip-path="url(#clip0_1_353)">
<path d="M0 62.1824C0.457267 60.3299 0.708764 58.4089 1.41753 56.6479C4.27545 49.6727 9.44257 45.4189 16.896 44.1154C25.8356 42.5603 34.7523 47.4772 38.5248 55.939C41.8628 63.4859 39.9194 72.9539 33.8149 78.5341C30.5455 81.53 26.7501 83.3367 22.3604 83.8627C22.1775 83.8856 21.9946 83.9542 21.8116 83.9999C20.6685 83.9999 19.5253 83.9999 18.3593 83.9999C17.8334 83.9085 17.2847 83.7941 16.7588 83.7026C9.44257 82.3076 4.29831 78.1682 1.46326 71.3073C0.731628 69.5235 0.457267 67.5338 0 65.6357C0 64.4693 0 63.3258 0 62.1824ZM20.0512 47.4772C10.9744 47.5458 3.58955 54.9556 3.63527 63.9433C3.681 72.9997 11.1345 80.4094 20.1198 80.3637C29.1737 80.3179 36.5814 72.8625 36.5128 63.8976C36.4442 54.7955 29.0365 47.4086 20.0512 47.4772Z" fill="#4FFFCA"/>
<path d="M63.3315 84C58.5074 80.3866 53.6832 76.7732 48.859 73.1598C48.5161 72.9083 48.1731 72.611 47.8988 72.2679C47.35 71.6276 47.3729 70.8272 47.8988 70.1639C48.1274 69.8895 48.3789 69.6379 48.6532 69.4321C53.2488 65.9788 57.8215 62.5484 62.417 59.0951C63.0572 58.6148 63.6973 58.2489 64.5433 58.5691C65.6636 59.0036 66.098 60.3986 65.3435 61.3363C65.1377 61.6107 64.8405 61.8394 64.5661 62.0452C61.5939 64.2864 58.6217 66.5048 55.6494 68.746C55.4437 68.9061 55.2379 69.0662 54.9178 69.3406C63.4687 69.3406 71.8596 69.3406 80.3647 69.3406C80.3647 69.0205 80.3647 68.7003 80.3647 68.3801C80.3647 61.0161 80.3647 53.675 80.3647 46.3109C80.3647 44.6872 81.0278 43.7953 82.2167 43.841C83.3827 43.8639 84 44.7329 84 46.3109C84 54.4068 84 62.5026 84 70.5985C84 72.4509 83.4056 73.0455 81.5536 73.0455C73.0256 73.0455 64.4976 73.0455 55.9695 73.0455C55.6723 73.0455 55.3979 73.0455 55.1007 73.0455C55.0779 73.1141 55.055 73.1599 55.0321 73.2285C55.2608 73.4114 55.4665 73.5715 55.6952 73.7545C58.6217 75.9499 61.5482 78.1454 64.4747 80.3409C66.1666 81.5987 66.1437 82.8337 64.4747 84.0229C64.086 84 63.6973 84 63.3315 84Z" fill="#4FFFCA"/>
<path d="M0 12.3038C0.502994 11.2747 1.32608 10.9545 2.44638 10.9545C10.9744 10.9774 19.5025 10.9774 28.0305 10.9774C28.3277 10.9774 28.6021 10.9774 28.8993 10.9774C28.9222 10.9316 28.945 10.863 28.9679 10.8173C28.7393 10.6343 28.5335 10.4742 28.3048 10.2913C25.3783 8.09578 22.4518 5.9003 19.5253 3.70482C19.2281 3.47613 18.908 3.22456 18.6794 2.95013C18.1535 2.33265 18.1535 1.37212 18.6565 0.754646C19.1595 0.0914278 20.0283 -0.137268 20.7828 0.205776C21.0572 0.320124 21.3087 0.50308 21.5602 0.663168C26.1786 4.11648 30.797 7.56978 35.3925 11.046C35.8269 11.3661 36.2384 11.8693 36.4213 12.3495C36.7643 13.3329 36.1241 13.9961 35.3925 14.545C32.4431 16.7634 29.4937 18.9588 26.5444 21.1772C24.8068 22.4808 23.0463 23.8072 21.2858 25.1108C20.6456 25.591 19.9369 25.7282 19.2052 25.3166C18.5651 24.9735 18.2907 24.4018 18.2907 23.6928C18.2907 22.9381 18.748 22.435 19.3195 22.0234C22.3375 19.7593 25.3555 17.4952 28.3734 15.2311C28.5792 15.071 28.785 14.9109 29.0822 14.6365C20.5313 14.6365 12.1404 14.6365 3.63528 14.6365C3.63528 14.9795 3.63528 15.2997 3.63528 15.6199C3.63528 22.9153 3.63528 30.2107 3.63528 37.5061C3.63528 37.8034 3.63528 38.1007 3.61241 38.398C3.54382 39.3128 2.9951 39.9303 2.12629 40.0903C1.3718 40.2276 0.640174 39.8616 0.228634 39.1298C0.160044 38.9926 0.0914535 38.8325 0.0228634 38.6953C0 29.9134 0 21.1086 0 12.3038Z" fill="#4FFFCA"/>
<path d="M63.8117 40.1818C52.7001 40.0675 43.669 30.9425 43.8062 19.988C43.9663 8.85051 53.043 -0.114365 64.0403 -1.67892e-05C75.1519 0.114331 84.1372 9.2393 84 20.2167C83.84 31.3084 74.7632 40.2962 63.8117 40.1818ZM63.926 3.63625C54.9178 3.61338 47.5101 11.0003 47.4872 20.0566C47.4415 29.0672 54.8492 36.477 63.9031 36.4998C72.8884 36.5227 80.3419 29.113 80.3647 20.0795C80.3647 11.1146 72.957 3.65912 63.926 3.63625Z" fill="#4FFFCA"/>
<path d="M20.0512 73.0226C14.9984 72.9998 10.9516 68.929 10.9744 63.8748C10.9973 58.8435 15.067 54.7727 20.1198 54.7727C25.1497 54.7727 29.2194 58.8892 29.2194 63.9205C29.1965 68.9747 25.104 73.0226 20.0512 73.0226ZM20.0969 69.3864C23.0691 69.3864 25.607 66.8478 25.5612 63.8748C25.5384 60.9246 23.092 58.4547 20.1198 58.4318C17.1704 58.3861 14.6097 60.9246 14.6097 63.8977C14.5868 66.8707 17.1247 69.3864 20.0969 69.3864Z" fill="#4FFFCA"/>
<path d="M73.0256 20.1024C73.0027 25.1337 68.933 29.2045 63.8802 29.2045C58.8503 29.2045 54.7806 25.0879 54.7806 20.0566C54.7806 15.0253 58.8732 10.9545 63.926 10.9774C68.9788 10.9774 73.0256 15.071 73.0256 20.1024ZM63.9031 14.6137C60.9309 14.6137 58.393 17.1522 58.4388 20.1252C58.4616 23.0754 60.9309 25.5453 63.8802 25.5682C66.8296 25.5911 69.3903 23.0754 69.3903 20.1024C69.3903 17.1293 66.8753 14.5908 63.9031 14.6137Z" fill="#4FFFCA"/>
</g>
<defs>
<clipPath id="clip0_1_353">
<rect width="84" height="84" fill="white"/>
</clipPath>
</defs>
</svg>
