<svg width="87" height="87" viewBox="0 0 87 87" fill="none" xmlns="http://www.w3.org/2000/svg">
<g style="mix-blend-mode:screen" clip-path="url(#clip0_25_429)">
<path d="M78.8999 0.430054H34.9699C31.0699 0.430054 27.7399 3.57005 27.7399 7.56005V15.6901C25.8599 15.1201 23.8399 14.6901 21.9599 14.6901C11.8399 14.6901 3.60987 22.8201 3.60987 32.8001C3.60987 39.5001 7.36987 45.6301 13.2899 48.7701H5.77987V57.4701H0.869873V68.59H5.77987V75.4301H0.869873V86.5501H78.7599C82.6599 86.5501 85.9899 83.41 85.9899 79.4201V7.56005C85.9799 3.57005 82.7999 0.430054 78.8999 0.430054ZM37.9999 68.59V75.4301H7.94987V68.59H37.9999ZM3.02987 66.4501V59.6101H33.0899V66.4501H3.02987ZM83.8099 73.7201V79.2801C83.8099 81.9901 81.4999 84.2701 78.7499 84.2701H35.2599V77.4301H40.1699V73.7201H83.8099ZM35.2599 66.4501V59.6101H40.1699V48.4801H30.4899C36.4099 45.3401 40.1699 39.2101 40.1699 32.5101C40.1699 25.6701 36.1199 19.2501 29.9099 16.2601V14.6901H83.8099V71.4401H40.1699V66.3101H35.2599V66.4501ZM21.9599 48.6301C12.9999 48.6301 5.77987 41.5001 5.77987 32.6601C5.77987 23.8201 13.0099 16.6901 21.9599 16.6901C30.9199 16.6901 38.1399 23.8201 38.1399 32.6601C38.1499 41.5001 30.7799 48.6301 21.9599 48.6301ZM37.9999 50.7701V57.4701H7.94987V50.6301H37.9999V50.7701ZM33.0899 77.5701V84.4101H3.02987V77.5701H33.0899ZM83.8099 7.56005V12.8401H29.9099V7.56005C29.9099 4.85005 32.2199 2.57005 34.9699 2.57005H78.8999C81.6399 2.57005 83.8099 4.85005 83.8099 7.56005Z" fill="#4FFFCA"/>
<path d="M78.7499 86.99H0.429932V75H5.33993V69.02H0.429932V57.03H5.33993V48.33H11.6899C6.39993 44.93 3.17993 39.11 3.17993 32.8C3.17993 22.58 11.6099 14.26 21.9699 14.26C23.5199 14.26 25.3199 14.55 27.3199 15.11V7.56C27.3199 3.39 30.7599 0 34.9799 0H78.8999C83.0399 0 86.4099 3.39 86.4099 7.56V79.42C86.4099 83.6 82.9799 86.99 78.7499 86.99ZM1.29993 86.12H78.7499C82.4899 86.12 85.5399 83.12 85.5399 79.42V7.56C85.5399 3.87 82.5599 0.86 78.8899 0.86H34.9699C31.2299 0.86 28.1799 3.86 28.1799 7.56V16.27L27.6199 16.1C25.4799 15.45 23.5799 15.12 21.9699 15.12C12.0899 15.12 4.04993 23.05 4.04993 32.79C4.04993 39.32 7.66993 45.29 13.4999 48.38L15.0399 49.2H6.20993V57.9H1.29993V68.15H6.20993V75.86H1.29993V86.12ZM33.5199 84.85H2.59993V77.14H33.5199V84.85ZM3.46993 83.98H32.6599V78H3.46993V83.98ZM78.7499 84.71H34.8199V77H39.7299V73.29H84.2399V79.28C84.2399 82.22 81.7299 84.71 78.7499 84.71ZM35.6899 83.84H78.7499C81.2599 83.84 83.3699 81.75 83.3699 79.28V74.15H40.5999V77.86H35.6899V83.84ZM38.4399 75.87H7.50993V68.16H38.4299V75.87H38.4399ZM8.37993 75H37.5699V69.02H8.37993V75ZM84.2399 71.87H39.7399V66.74H35.2599V66.45H34.8299V59.17H39.7399V48.92H28.7399L30.2799 48.1C36.1099 45.01 39.7299 39.04 39.7299 32.51C39.7299 25.81 35.7999 19.58 29.7199 16.65L29.4699 16.53V14.26H84.2399V71.87ZM40.5999 71.01H83.3699V15.13H30.3499V15.99C36.5899 19.11 40.6099 25.57 40.6099 32.51C40.6099 38.82 37.3799 44.64 32.0899 48.05H40.6099V60.04H35.6999V65.87H40.6099V71.01H40.5999ZM33.5199 66.88H2.59993V59.17H33.5199V66.88ZM3.46993 66.02H32.6599V60.04H3.46993V66.02ZM38.4399 57.9H7.50993V50.19H38.4299V57.9H38.4399ZM8.37993 57.03H37.5699V51.05H8.37993V57.03ZM21.9599 49.06C12.7999 49.06 5.33993 41.7 5.33993 32.66C5.33993 23.62 12.7899 16.26 21.9599 16.26C31.1299 16.26 38.5799 23.62 38.5799 32.66C38.5799 41.7 31.1299 49.06 21.9599 49.06ZM21.9599 17.12C13.2699 17.12 6.20993 24.09 6.20993 32.66C6.20993 41.23 13.2799 48.2 21.9599 48.2C30.6399 48.2 37.7099 41.23 37.7099 32.66C37.7099 24.09 30.6499 17.12 21.9599 17.12ZM84.2399 13.27H29.4799V7.56C29.4799 4.62 31.9899 2.14 34.9699 2.14H78.8999C81.8499 2.14 84.2499 4.57 84.2499 7.56V13.27H84.2399ZM30.3499 12.41H83.3799V7.56C83.3799 5.05 81.3699 3 78.8999 3H34.9699C32.4599 3 30.3499 5.09 30.3499 7.56V12.41Z" fill="#4FFFCA"/>
<path d="M46.5299 67.5901H54.9099V48.2001H46.3799V67.5901H46.5299ZM52.7399 50.3401V65.4501H48.5499V50.3401H52.7399Z" fill="#4FFFCA"/>
<path d="M55.34 68.02H45.95V47.77H55.34V68.02ZM46.82 67.16H54.4799V48.63H46.82V67.16ZM53.18 65.89H48.1199V49.9H53.18V65.89ZM48.99 65.02H52.31V50.77H48.99V65.02Z" fill="#4FFFCA"/>
<path d="M57.8 67.5899H66.3301V35.9399H57.8V67.5899ZM64.1601 38.0799V65.3099H59.9701V38.0799H64.1601Z" fill="#4FFFCA"/>
<path d="M66.7601 68.02H57.3701V35.5H66.7601V68.02ZM58.2301 67.16H65.8901V36.37H58.2301V67.16ZM64.5901 65.74H59.5301V37.64H64.5901V65.74ZM60.4001 64.88H63.7201V38.51H60.4001V64.88Z" fill="#4FFFCA"/>
<path d="M77.5998 22.11H69.0698V67.59H77.5998V22.11ZM71.3798 65.45V24.25H75.5698V65.46H71.3798V65.45Z" fill="#4FFFCA"/>
<path d="M78.0299 68.02H68.6399V21.67H78.0299V68.02ZM69.4999 67.16H77.1599V22.54H69.4999V67.16ZM76.0099 65.89H70.9499V23.81H76.0099V65.89ZM71.8199 65.02H75.1399V24.68H71.8199V65.02Z" fill="#4FFFCA"/>
<path d="M49.4201 27.0999L54.1901 32.5199L65.0301 21.9699V25.6799H67.2001V18.3999H59.5401V20.5399H63.3001L54.3401 29.3799L49.5701 23.9599L42.3401 31.2299L43.7801 32.6599L49.4201 27.0999Z" fill="#4FFFCA"/>
<path d="M43.78 33.27L41.72 31.24L49.58 23.33L54.35 28.75L62.23 20.97H59.1V17.96H67.63V26.1H64.6V22.99L54.16 33.14L49.39 27.72L43.78 33.27ZM42.95 31.23L43.78 32.05L49.44 26.47L54.21 31.89L65.46 20.94V25.24H66.76V18.83H59.97V20.1H64.35L54.31 30L49.54 24.59L42.95 31.23Z" fill="#4FFFCA"/>
<path d="M57.8 6.28003H54.48V9.56003H57.8V6.28003Z" fill="#4FFFCA"/>
<path d="M58.23 9.98998H54.04V5.84998H58.23V9.98998ZM54.91 9.12998H57.37V6.70998H54.91V9.12998Z" fill="#4FFFCA"/>
<path d="M1.88 9.26997C4.34 9.26997 6.22 11.12 6.36 13.4H6.07L6.36 13.69C6.36 13.69 6.36 13.69 6.36 13.83V14.54L7.52 15.54L8.39 14.68L8.68 14.25V13.68C8.68 11.26 10.7 9.25997 13.16 9.25997H13.88L15.04 8.25997L14.32 7.39997L13.89 6.96997H13.31H13.17C10.71 6.96997 8.83 5.11997 8.69 2.83997H8.53C8.53 2.69997 8.53 2.69997 8.53 2.54997L8.67 1.83997L7.51 0.719971L6.65 1.56997L6.36 1.99997V2.56997V2.70997L6.07 2.99997H6.36C6.21 5.27997 4.19 7.13997 1.88 7.13997C1.88 7.13997 1.74 7.13997 1.59 7.13997H1.16L0 8.12997L0.87 8.98997L1.3 9.26997H1.88ZM7.51 6.13997C7.94 6.99997 8.67 7.56997 9.53 8.13997C8.66 8.70997 7.94 9.27997 7.51 10.14C6.93 9.27997 6.35 8.70997 5.49 8.13997C6.36 7.70997 6.94 6.98997 7.51 6.13997Z" fill="#4FFFCA"/>
<path d="M28.8999 32.37C29.3299 32.08 29.7699 31.66 30.0599 31.23C30.4899 30.52 30.7799 29.66 30.7799 28.66C30.7799 27.23 30.1999 25.95 29.0499 25.24C27.8899 24.38 26.4499 24.1 24.4299 24.1H24.2899V21.39H22.1199V24.1H21.6899V21.39H19.5199V24.1H14.8999V26.24H16.7799V39.36H14.8999V41.5H19.5199V44.07H21.6899V41.5H22.1199V44.07H24.2899V41.5H24.9999C27.1699 41.5 28.7599 41.07 29.9099 40.22C31.0699 39.36 31.6399 38.22 31.6399 36.66C31.6399 35.52 31.3499 34.52 30.6299 33.67C30.3499 33.09 29.6199 32.66 28.8999 32.37ZM29.1899 36.51C29.1899 37.51 28.8999 38.22 28.1799 38.65C27.4599 39.08 26.4499 39.36 24.9999 39.36H19.3599V33.8H24.9999C27.8899 33.66 29.1899 34.65 29.1899 36.51ZM19.3599 31.52V26.24H24.4199C25.7199 26.24 26.7299 26.53 27.3099 26.95C27.8899 27.38 28.3199 28.09 28.3199 28.95C28.3199 29.81 28.0299 30.38 27.4499 30.8C26.7299 31.23 25.7199 31.51 24.5599 31.51H19.3599V31.52Z" fill="#4FFFCA"/>
</g>
<defs>
<clipPath id="clip0_25_429">
<rect width="86.41" height="86.99" fill="white"/>
</clipPath>
</defs>
</svg>
