<svg width="66" height="85" viewBox="0 0 66 85" fill="none" xmlns="http://www.w3.org/2000/svg">
<g clip-path="url(#clip0_1_320)">
<path d="M65.51 84.96H0V38.66H65.51V84.96ZM3.47 81.5H62.04V42.13H3.47V81.5Z" fill="#4FFFCA"/>
<path d="M31.81 33.8801L19.88 21.9401L22.33 19.4901L28.34 25.5101V4.18005H31.81V33.8801Z" fill="#4FFFCA"/>
<path d="M38.54 29.69H35.07V0L47.01 11.93L44.55 14.39L38.54 8.37V29.69Z" fill="#4FFFCA"/>
<path d="M65.51 69.22H53.57C49.3 69.22 45.82 65.74 45.82 61.47V58.7C45.82 54.43 49.3 50.95 53.57 50.95H65.51V69.22ZM53.57 54.4199C51.21 54.4199 49.29 56.34 49.29 58.7V61.4799C49.29 63.8399 51.21 65.76 53.57 65.76H62.04V54.4199H53.57Z" fill="#4FFFCA"/>
</g>
<defs>
<clipPath id="clip0_1_320">
<rect width="65.51" height="84.96" fill="white"/>
</clipPath>
</defs>
</svg>
