<svg width="31" height="31" viewBox="0 0 31 31" fill="none" xmlns="http://www.w3.org/2000/svg">
<path fill-rule="evenodd" clip-rule="evenodd" d="M15.61 0.0012207C23.9273 0.0012207 30.6788 6.75273 30.6788 15.07C30.6788 23.3872 23.9273 30.1387 15.61 30.1387C7.29277 30.1387 0.54126 23.3872 0.54126 15.07C0.54126 6.75273 7.29277 0.0012207 15.61 0.0012207ZM15.61 5.652C13.0495 5.652 12.7316 5.66377 11.7251 5.71086C10.7244 5.75795 10.0357 5.91688 9.44124 6.14644C8.82318 6.38778 8.29931 6.71152 7.77544 7.2354C7.25156 7.75927 6.92782 8.28315 6.68648 8.9012C6.45103 9.50159 6.29211 10.1844 6.2509 11.1851C6.20381 12.1916 6.19204 12.5095 6.19204 15.07C6.19204 17.6305 6.20381 17.9483 6.2509 18.9549C6.29799 19.9555 6.45692 20.6442 6.68648 21.2387C6.92782 21.8568 7.25156 22.3807 7.77544 22.9045C8.29931 23.4284 8.82318 23.7522 9.44124 23.9935C10.0416 24.2289 10.7244 24.3879 11.7251 24.4291C12.7316 24.4762 13.0495 24.4879 15.61 24.4879C18.1705 24.4879 18.4884 24.4762 19.4949 24.4291C20.4956 24.382 21.1843 24.2231 21.7788 23.9935C22.3968 23.7522 22.9207 23.4284 23.4446 22.9045C23.9685 22.3807 24.2922 21.8568 24.5335 21.2387C24.769 20.6383 24.9279 19.9555 24.9691 18.9549C25.0162 17.9483 25.028 17.6305 25.028 15.07C25.028 12.5095 25.0162 12.1916 24.9691 11.1851C24.922 10.1844 24.7631 9.49571 24.5335 8.9012C24.2922 8.28315 23.9685 7.75927 23.4446 7.2354C22.9207 6.71152 22.3968 6.38778 21.7788 6.14644C21.1784 5.911 20.4956 5.75207 19.4949 5.71086C18.4884 5.66377 18.1646 5.652 15.61 5.652ZM15.61 7.34723C18.1234 7.34723 18.4236 7.35901 19.4184 7.40021C20.3366 7.44141 20.837 7.59446 21.1666 7.72395C21.6081 7.89465 21.92 8.10067 22.2497 8.4303C22.5793 8.75993 22.7853 9.0719 22.956 9.51337C23.0855 9.843 23.2386 10.3433 23.2798 11.2616C23.3269 12.2564 23.3327 12.5507 23.3327 15.07C23.3327 17.5893 23.321 17.8836 23.2798 18.8784C23.2386 19.7966 23.0855 20.2969 22.956 20.6266C22.7853 21.068 22.5793 21.38 22.2497 21.7096C21.92 22.0393 21.6081 22.2453 21.1666 22.416C20.837 22.5455 20.3366 22.6985 19.4184 22.7397C18.4236 22.7868 18.1293 22.7927 15.61 22.7927C13.0907 22.7927 12.7964 22.7809 11.8016 22.7397C10.8834 22.6985 10.383 22.5455 10.0534 22.416C9.61194 22.2453 9.29997 22.0393 8.97034 21.7096C8.64071 21.38 8.43469 21.068 8.26399 20.6266C8.1345 20.2969 7.98145 19.7966 7.94025 18.8784C7.89316 17.8836 7.88727 17.5893 7.88727 15.07C7.88727 12.5507 7.89905 12.2564 7.94025 11.2616C7.98145 10.3433 8.1345 9.843 8.26399 9.51337C8.43469 9.0719 8.64071 8.75993 8.97034 8.4303C9.29997 8.10067 9.61194 7.89465 10.0534 7.72395C10.383 7.59446 10.8834 7.44141 11.8016 7.40021C12.7964 7.35901 13.0966 7.34723 15.61 7.34723ZM15.61 10.2315C12.9377 10.2315 10.7715 12.3976 10.7715 15.07C10.7715 17.7423 12.9377 19.9084 15.61 19.9084C18.2824 19.9084 20.4485 17.7423 20.4485 15.07C20.4485 12.3976 18.2824 10.2315 15.61 10.2315ZM15.61 18.2073C13.8736 18.2073 12.4726 16.8005 12.4726 15.07C12.4726 13.3335 13.8795 11.9326 15.61 11.9326C17.3406 11.9326 18.7474 13.3394 18.7474 15.07C18.7474 16.8005 17.3406 18.2073 15.61 18.2073ZM21.767 10.0431C21.767 10.6671 21.2608 11.1733 20.6368 11.1733C20.0129 11.1733 19.5067 10.6671 19.5067 10.0431C19.5067 9.41919 20.0129 8.91297 20.6368 8.91297C21.2608 8.91297 21.767 9.41919 21.767 10.0431Z" fill="#5E5E5E"/>
</svg>
