<svg width="31" height="31" viewBox="0 0 31 31" fill="none" xmlns="http://www.w3.org/2000/svg">
<g clip-path="url(#clip0_25_324)">
<path d="M13.3279 19.0024L19.6518 15.848L13.3279 12.6785V19.0024Z" fill="#5E5E5E"/>
<path d="M15.8634 0.754883C7.53213 0.754883 0.770508 7.5165 0.770508 15.8478C0.770508 24.1791 7.53213 30.9407 15.8634 30.9407C24.1947 30.9407 30.9563 24.1791 30.9563 15.8478C30.9563 7.5165 24.1947 0.754883 15.8634 0.754883ZM25.3417 18.3683C25.3417 20.4511 23.6362 22.1566 21.5534 22.1566H10.1734C8.09056 22.1566 6.38507 20.4511 6.38507 18.3683V13.3122C6.38507 11.2293 8.09056 9.52385 10.1734 9.52385H21.5534C23.6362 9.52385 25.3417 11.2293 25.3417 13.3122V18.3683V18.3683Z" fill="#5E5E5E"/>
</g>
<defs>
<clipPath id="clip0_25_324">
<rect width="30.1858" height="30.1707" fill="white" transform="translate(0.770508 0.754883)"/>
</clipPath>
</defs>
</svg>
