<svg width="133" height="28" viewBox="0 0 133 28" fill="none" xmlns="http://www.w3.org/2000/svg">
<g clip-path="url(#clip0_25_349)">
<path d="M36.2068 27.5913C35.7232 27.3328 35.3275 26.9667 35.0637 26.4928C34.7779 26.019 34.646 25.5021 34.646 24.9205C34.646 24.339 34.7779 23.8221 35.0637 23.3482C35.3495 22.8744 35.7232 22.5082 36.2068 22.2498C36.6905 21.9913 37.24 21.8621 37.8556 21.8621C38.3172 21.8621 38.7349 21.9267 39.1086 22.0774C39.5043 22.2282 39.8121 22.4436 40.0979 22.7236L39.6802 23.1328C39.1966 22.659 38.603 22.4221 37.8556 22.4221C37.3719 22.4221 36.9323 22.5298 36.5366 22.7451C36.1409 22.9605 35.8331 23.2621 35.5913 23.6498C35.3714 24.0374 35.2615 24.4467 35.2615 24.9205C35.2615 25.3944 35.3714 25.8251 35.5913 26.1913C35.8111 26.579 36.1189 26.859 36.5366 27.0959C36.9323 27.3113 37.3719 27.419 37.8556 27.419C38.603 27.419 39.1966 27.1821 39.6802 26.6867L40.0979 27.0959C39.8341 27.3759 39.5043 27.5913 39.1086 27.7636C38.7129 27.9359 38.2953 28.0005 37.8336 28.0005C37.24 28.0005 36.6905 27.8713 36.2068 27.5913Z" fill="white"/>
<path d="M46.3851 27.9353L44.9782 25.9968C44.8243 26.0184 44.6484 26.0184 44.4945 26.0184H42.8458V27.9353H42.1863V21.9045H44.4945C45.2859 21.9045 45.9015 22.0984 46.3412 22.4645C46.7808 22.8307 47.0007 23.3261 47.0007 23.9722C47.0007 24.4461 46.8688 24.8338 46.6269 25.1569C46.3851 25.4799 46.0334 25.7168 45.5937 25.8676L47.0886 27.9353H46.3851ZM45.8795 25.0922C46.2093 24.8338 46.3631 24.4676 46.3631 23.9722C46.3631 23.4769 46.2093 23.1107 45.8795 22.8522C45.5497 22.5938 45.0881 22.4645 44.4945 22.4645H42.8678V25.4799H44.4945C45.0881 25.5015 45.5497 25.3507 45.8795 25.0922Z" fill="white"/>
<path d="M51.2654 25.8676V27.9568H50.6279V25.8676L48.1658 21.926H48.8692L50.9797 25.3076L53.0901 21.926H53.7496L51.2654 25.8676Z" fill="white"/>
<path d="M59.4435 22.4646C59.8831 22.8307 60.103 23.3261 60.103 23.9723C60.103 24.6184 59.8831 25.1138 59.4435 25.48C59.0038 25.8461 58.3882 26.0184 57.5968 26.0184H55.9481V27.9138H55.2886V21.8831H57.5968C58.3882 21.9261 59.0038 22.0984 59.4435 22.4646ZM58.9818 25.0923C59.3116 24.8338 59.4654 24.4677 59.4654 23.9938C59.4654 23.4984 59.3116 23.1323 58.9818 22.8738C58.652 22.6154 58.1904 22.4861 57.5968 22.4861H55.9701V25.5015H57.5968C58.1904 25.48 58.652 25.3507 58.9818 25.0923Z" fill="white"/>
<path d="M63.2025 22.4645H61.0481V21.9045H66.0164V22.4645H63.862V27.9353H63.2025V22.4645Z" fill="white"/>
<path d="M68.6985 27.5906C68.1929 27.3322 67.8192 26.966 67.5334 26.4922C67.2476 26.0183 67.1157 25.5014 67.1157 24.9198C67.1157 24.3383 67.2476 23.8214 67.5334 23.3475C67.8192 22.8737 68.1929 22.5075 68.6985 22.2491C69.2042 21.9906 69.7537 21.8398 70.3473 21.8398C70.9628 21.8398 71.5124 21.9691 71.9961 22.2275C72.4797 22.486 72.8754 22.8522 73.1392 23.326C73.425 23.7998 73.5569 24.3168 73.5569 24.8983C73.5569 25.4798 73.425 25.9968 73.1392 26.4706C72.8534 26.9445 72.4797 27.3106 71.9961 27.5691C71.5124 27.8275 70.9628 27.9568 70.3473 27.9568C69.7537 27.9998 69.2042 27.8706 68.6985 27.5906ZM71.6663 27.0952C72.062 26.8798 72.3698 26.5783 72.5896 26.1906C72.8094 25.8029 72.9194 25.3937 72.9194 24.9198C72.9194 24.446 72.8094 24.0152 72.5896 23.6491C72.3698 23.2614 72.062 22.9598 71.6663 22.7445C71.2706 22.5291 70.8309 22.4214 70.3473 22.4214C69.8637 22.4214 69.424 22.5291 69.0283 22.7445C68.6326 22.9598 68.3248 23.2614 68.105 23.6491C67.8851 24.0368 67.7752 24.446 67.7752 24.9198C67.7752 25.3937 67.8851 25.8245 68.105 26.1906C68.3248 26.5783 68.6326 26.8798 69.0283 27.0952C69.424 27.3106 69.8637 27.4183 70.3473 27.4183C70.8309 27.4183 71.2926 27.3106 71.6663 27.0952Z" fill="white"/>
<path d="M83.0976 27.3968V27.9568H78.7449V21.926H82.9657V22.486H79.4044V24.6183H82.592V25.1568H79.4044V27.3968H83.0976Z" fill="white"/>
<path d="M89.099 27.9353L87.1205 25.2861L85.142 27.9353H84.3945L86.7248 24.8338L84.5484 21.9045H85.2959L87.1425 24.3599L88.9891 21.9045H89.6926L87.5162 24.8122L89.8684 27.9353H89.099Z" fill="white"/>
<path d="M92.5064 27.5906C92.0227 27.3321 91.627 26.9659 91.3632 26.4921C91.0775 26.0183 90.9456 25.5013 90.9456 24.9198C90.9456 24.3383 91.0775 23.8213 91.3632 23.3475C91.649 22.8736 92.0227 22.5075 92.5064 22.249C92.99 21.9906 93.5396 21.8613 94.1551 21.8613C94.6168 21.8613 95.0345 21.9259 95.4082 22.0767C95.8039 22.2275 96.1116 22.4429 96.3974 22.7229L95.9797 23.1321C95.4961 22.6583 94.9026 22.4213 94.1551 22.4213C93.6715 22.4213 93.2318 22.529 92.8361 22.7444C92.4404 22.9598 92.1327 23.2613 91.8908 23.649C91.671 24.0367 91.5611 24.4459 91.5611 24.9198C91.5611 25.3936 91.671 25.8244 91.8908 26.1906C92.1107 26.5783 92.4184 26.8583 92.8361 27.0952C93.2538 27.3321 93.6715 27.4183 94.1551 27.4183C94.9026 27.4183 95.4961 27.1813 95.9797 26.6859L96.3974 27.0952C96.1336 27.3752 95.8039 27.5906 95.4082 27.7629C95.0125 27.9352 94.5948 27.9998 94.1331 27.9998C93.5396 27.9998 92.99 27.8706 92.5064 27.5906Z" fill="white"/>
<path d="M103.63 21.926V27.9568H102.993V25.1783H99.1456V27.9568H98.4861V21.926H99.1456V24.6183H102.993V21.926H103.63Z" fill="white"/>
<path d="M110.181 26.3414H106.752L106.004 27.9568H105.323L108.137 21.926H108.774L111.588 27.9568H110.907L110.181 26.3414ZM109.939 25.8245L108.466 22.5937L106.993 25.8245H109.939Z" fill="white"/>
<path d="M118.469 21.926V27.9568H117.941L113.984 23.0676V27.9568H113.325V21.926H113.853L117.81 26.8153V21.926H118.469Z" fill="white"/>
<path d="M125.504 24.9415H126.119V27.2461C125.833 27.4831 125.482 27.6769 125.108 27.8061C124.712 27.9354 124.295 28 123.877 28C123.261 28 122.712 27.8708 122.228 27.6123C121.744 27.3538 121.349 26.9877 121.063 26.5138C120.777 26.04 120.645 25.5231 120.645 24.9415C120.645 24.36 120.777 23.8431 121.063 23.3692C121.349 22.8954 121.722 22.5292 122.228 22.2707C122.712 22.0123 123.283 21.8831 123.899 21.8831C124.36 21.8831 124.8 21.9477 125.196 22.0984C125.592 22.2492 125.921 22.4646 126.185 22.7446L125.789 23.1538C125.306 22.68 124.69 22.4431 123.943 22.4431C123.437 22.4431 122.998 22.5507 122.602 22.7661C122.206 22.9815 121.876 23.2831 121.657 23.6708C121.437 24.0584 121.305 24.4677 121.305 24.9415C121.305 25.4154 121.415 25.8461 121.657 26.2123C121.876 26.6 122.206 26.88 122.602 27.1169C122.998 27.3323 123.437 27.44 123.943 27.44C124.58 27.44 125.108 27.2892 125.548 26.9661V24.9415H125.504Z" fill="white"/>
<path d="M133 27.3968V27.9568H128.647V21.926H132.868V22.486H129.307V24.6183H132.494V25.1568H129.307V27.3968H133Z" fill="white"/>
<path d="M66.6978 0H70.6768V16.8215H66.6978V0Z" fill="white"/>
<path d="M58.6959 0V10.2092L50.1883 0H46.9128H46.2533V9.28308C46.2533 10.8554 45.9235 11.9754 45.264 12.7077C44.6045 13.44 43.6592 13.7846 42.4281 13.7846C39.8781 13.7846 38.625 12.2985 38.625 9.28308V0H34.646V9.43385C34.646 11.8892 35.3495 13.8062 36.6905 15.1415C38.0534 16.4769 39.966 17.1446 42.4281 17.1446C44.8903 17.1446 46.7809 16.4554 48.1658 15.1415C49.5288 13.8062 50.2103 11.9323 50.2103 9.43385V5.90154L50.8698 6.63385L59.3554 16.8215H62.631V0H58.6959Z" fill="white"/>
<path d="M25.8306 0H2.74793C1.23107 0 0 1.20615 0 2.64923V25.3077C0 26.7938 1.23107 28 2.74793 28H25.8306C27.3474 28 28.5785 26.7938 28.5785 25.3077V2.64923C28.5785 1.20615 27.3474 0 25.8306 0ZM26.5341 13.9785H14.0255V26.2338H13.4539C13.4539 19.7723 8.13389 14.5385 1.51686 14.5385V13.9785H14.0255V1.72308H14.597C14.597 8.18462 19.917 13.4185 26.5341 13.4185V13.9785Z" fill="white"/>
<path d="M76.7003 16.3046C75.5571 15.8954 74.6558 15.3785 74.0403 14.7323L74.7438 13.3754C75.3593 13.9785 76.1727 14.4523 77.2059 14.8185C78.2391 15.1846 79.2943 15.3785 80.3715 15.3785C81.8884 15.3785 83.0315 15.0985 83.779 14.5815C84.5264 14.0646 84.9221 13.3323 84.9221 12.4492C84.9221 11.76 84.7243 11.2431 84.3066 10.8338C83.8889 10.4246 83.4052 10.1446 82.7897 9.90769C82.1742 9.71385 81.3608 9.45538 80.2836 9.21846C79.0086 8.89538 77.9973 8.61539 77.2059 8.29231C76.4365 8.01231 75.821 7.56 75.2274 6.95692C74.6998 6.35385 74.414 5.55692 74.414 4.50154C74.414 3.66154 74.6558 2.88615 75.1175 2.21846C75.5791 1.52923 76.2606 0.969231 77.2059 0.581538C78.1512 0.193846 79.2943 0 80.6793 0C81.6686 0 82.6138 0.129231 83.5591 0.409231C84.5044 0.689231 85.2738 1.01231 85.9773 1.48615L85.3618 2.88615C84.6583 2.43385 83.8889 2.08923 83.0755 1.85231C82.2621 1.61538 81.4707 1.48615 80.7013 1.48615C79.2284 1.48615 78.0852 1.76615 77.3378 2.32615C76.5904 2.88615 76.1947 3.61846 76.1947 4.50154C76.1947 5.19077 76.3925 5.70769 76.8102 6.11692C77.2279 6.52615 77.7555 6.84923 78.371 7.04308C78.9866 7.23692 79.8439 7.49539 80.8771 7.73231C82.1082 8.05538 83.1414 8.33538 83.9109 8.61539C84.6803 8.89538 85.3398 9.34769 85.8894 9.95077C86.417 10.5538 86.7028 11.3508 86.7028 12.3631C86.7028 13.2031 86.461 13.9785 85.9993 14.6462C85.5376 15.3354 84.8122 15.8954 83.8669 16.2831C82.9216 16.6923 81.7345 16.8862 80.3495 16.8862C79.0745 16.9077 77.8874 16.7138 76.7003 16.3046Z" fill="white"/>
<path d="M93.6275 1.6153H87.6479V0.12915H101.388V1.65838H95.4081V16.7999H93.6055V1.6153H93.6275Z" fill="white"/>
<path d="M116.293 15.2276V16.7568H104.29V0.12915H115.941V1.65838H106.092V7.55992H114.864V9.04607H106.092V15.2276H116.293Z" fill="white"/>
<path d="M130.934 16.7568L125.438 9.45531L119.986 16.7568H117.941L124.427 8.18454L118.359 0.12915H120.404L125.526 6.91377L130.604 0.12915H132.538L126.515 8.163L133 16.7568H130.934Z" fill="white"/>
</g>
<defs>
<clipPath id="clip0_25_349">
<rect width="133" height="28" fill="white"/>
</clipPath>
</defs>
</svg>
