<svg width="31" height="31" viewBox="0 0 31 31" fill="none" xmlns="http://www.w3.org/2000/svg">
<g clip-path="url(#clip0_25_319)">
<path d="M15.1119 -0.0239258C6.77825 -0.0239258 0.0377643 6.71656 0.0377643 15.0503C-0.0235128 23.4452 6.77825 30.1857 15.1119 30.1857C23.4456 30.1857 30.1861 23.4452 30.1861 15.1115C30.1861 6.77784 23.4456 -0.0239258 15.1119 -0.0239258ZM19.095 15.0503H16.46C16.46 19.2171 16.46 24.3644 16.46 24.3644H12.5996C12.5996 24.3644 12.5996 19.2784 12.5996 15.0503H10.7613V11.7413H12.5996V9.59659C12.5996 8.06466 13.3349 5.67485 16.5213 5.67485H19.4013V8.86126C19.4013 8.86126 17.6856 8.86126 17.3179 8.86126C16.9503 8.86126 16.5213 9.04509 16.5213 9.78042V11.7413H19.4626L19.095 15.0503Z" fill="#5E5E5E"/>
</g>
<defs>
<clipPath id="clip0_25_319">
<rect width="30.1858" height="30.1707" fill="white"/>
</clipPath>
</defs>
</svg>
