<svg width="262" height="52" viewBox="0 0 262 52" fill="none" xmlns="http://www.w3.org/2000/svg">
<g clip-path="url(#clip0_87_381)">
<path d="M67.4873 50.7C66.6623 50.2125 66.0022 49.725 65.6722 48.9125C65.1772 48.1 65.0122 47.2875 65.0122 46.3125C65.0122 45.3375 65.1772 44.525 65.6722 43.7125C66.1672 42.9 66.8273 42.4125 67.4873 41.925C68.3123 41.4375 69.1373 41.275 70.1274 41.275C70.9524 41.275 71.6124 41.4375 72.2724 41.6C72.9325 41.7625 73.4275 42.25 73.9225 42.7375L73.2625 43.3875C72.4374 42.575 71.4474 42.25 70.2924 42.25C69.4673 42.25 68.8073 42.4125 68.1473 42.7375C67.4873 43.0625 66.9923 43.55 66.6623 44.2C66.3322 44.85 66.1672 45.5 66.1672 46.3125C66.1672 47.125 66.3322 47.775 66.6623 48.425C66.9923 49.075 67.4873 49.5625 68.1473 49.8875C68.8073 50.2125 69.4673 50.375 70.2924 50.375C71.4474 50.375 72.4374 50.05 73.2625 49.2375L73.9225 49.8875C73.4275 50.375 72.9325 50.7 72.2724 51.025C71.6124 51.35 70.9524 51.35 70.1274 51.35C69.1373 51.35 68.3123 51.1875 67.4873 50.7Z" fill="#EBE7E5"/>
<path d="M82.9979 51.35L80.6878 48.1C80.3578 48.1 80.1928 48.1 79.8628 48.1H77.2227V51.1875H76.2327V41.275H80.0278C81.3478 41.275 82.3379 41.6 82.9979 42.25C83.6579 42.9 84.1529 43.7125 84.1529 44.6875C84.1529 45.5 83.9879 46.15 83.4929 46.6375C83.1629 47.125 82.5029 47.6125 81.8428 47.775L84.3179 51.1875H82.9979V51.35ZM82.1729 46.6375C82.6679 46.15 82.9979 45.6625 82.9979 44.85C82.9979 44.0375 82.6679 43.3875 82.1729 43.0625C81.6778 42.4125 80.8528 42.25 79.8628 42.25H77.2227V47.2875H79.8628C80.8528 47.2875 81.6778 46.9625 82.1729 46.6375Z" fill="#EBE7E5"/>
<path d="M89.9279 47.775V51.1875H88.9379V47.775L84.9778 41.275H86.1328L89.5979 46.8L93.063 41.275H94.0531L89.9279 47.775Z" fill="#EBE7E5"/>
<path d="M102.138 42.25C102.798 42.9 103.293 43.7125 103.293 44.6875C103.293 45.825 102.963 46.6375 102.138 47.125C101.478 47.775 100.323 48.1 99.1682 48.1H96.5281V51.1875H95.5381V41.275H99.3332C100.488 41.275 101.478 41.6 102.138 42.25ZM101.313 46.6375C101.808 46.15 102.138 45.6625 102.138 44.85C102.138 44.0375 101.808 43.3875 101.313 43.0625C100.818 42.575 99.9932 42.4125 99.0032 42.4125H96.3631V47.45H99.0032C100.158 47.2875 100.818 46.9625 101.313 46.6375Z" fill="#EBE7E5"/>
<path d="M107.254 42.25H103.624V41.275H111.709V42.25H108.079V51.35H107.254V42.25Z" fill="#EBE7E5"/>
<path d="M115.009 50.7C114.184 50.2125 113.524 49.725 113.029 48.9125C112.534 48.1 112.369 47.2875 112.369 46.3125C112.369 45.3375 112.534 44.525 113.029 43.7125C113.524 42.9 114.184 42.4125 115.009 41.925C115.834 41.4375 116.659 41.275 117.649 41.275C118.639 41.275 119.629 41.4375 120.289 41.925C121.114 42.4125 121.774 42.9 122.104 43.7125C122.599 44.525 122.764 45.3375 122.764 46.3125C122.764 47.2875 122.599 48.1 122.104 48.9125C121.609 49.725 120.949 50.2125 120.289 50.7C119.464 51.1875 118.639 51.35 117.649 51.35C116.659 51.35 115.834 51.1875 115.009 50.7ZM119.959 49.8875C120.619 49.5625 121.114 49.075 121.444 48.425C121.774 47.775 121.939 47.125 121.939 46.3125C121.939 45.5 121.774 44.85 121.444 44.2C121.114 43.55 120.619 43.0625 119.959 42.7375C119.299 42.4125 118.639 42.25 117.814 42.25C116.989 42.25 116.329 42.4125 115.669 42.7375C115.009 43.0625 114.514 43.55 114.184 44.2C113.854 44.85 113.689 45.5 113.689 46.3125C113.689 47.125 113.854 47.775 114.184 48.425C114.514 49.075 115.009 49.5625 115.669 49.8875C116.329 50.2125 116.989 50.375 117.814 50.375C118.639 50.375 119.299 50.2125 119.959 49.8875Z" fill="#EBE7E5"/>
<path d="M129.199 41.275H130.354V51.1875H129.364V41.275H129.199Z" fill="#EBE7E5"/>
<path d="M134.314 51.025C133.654 50.8625 133.159 50.5375 132.664 50.05L133.159 49.2375C133.489 49.5625 133.984 49.8875 134.644 50.05C135.304 50.2125 135.799 50.375 136.459 50.375C137.284 50.375 138.109 50.2125 138.439 49.8875C138.935 49.5625 139.1 49.075 139.1 48.5875C139.1 48.2625 138.935 47.9375 138.77 47.6125C138.604 47.45 138.274 47.125 137.944 47.125C137.614 46.9625 137.119 46.8 136.459 46.6375C135.634 46.475 135.139 46.3125 134.644 46.15C134.149 45.9875 133.819 45.6625 133.489 45.3375C133.159 45.0125 132.994 44.525 132.994 43.875C132.994 43.3875 133.159 42.9 133.324 42.575C133.654 42.0875 133.984 41.7625 134.644 41.6C135.304 41.4375 135.964 41.275 136.789 41.275C137.449 41.275 137.944 41.275 138.439 41.4375C138.935 41.6 139.43 41.7625 139.925 42.0875L139.595 42.9C139.1 42.575 138.77 42.4125 138.274 42.25C137.779 42.0875 137.284 42.0875 136.789 42.0875C135.964 42.0875 135.304 42.25 134.809 42.575C134.314 42.9 134.149 43.3875 134.149 43.875C134.149 44.2 134.314 44.525 134.479 44.85C134.644 45.0125 134.974 45.3375 135.469 45.3375C135.799 45.5 136.294 45.6625 136.954 45.825C137.614 45.9875 138.274 46.15 138.77 46.3125C139.265 46.475 139.595 46.8 139.925 47.125C140.255 47.45 140.42 47.9375 140.42 48.5875C140.42 49.075 140.255 49.5625 140.09 49.8875C139.76 50.375 139.43 50.7 138.77 50.8625C138.274 51.025 137.449 51.1875 136.624 51.1875C135.634 51.35 134.974 51.1875 134.314 51.025Z" fill="#EBE7E5"/>
<path d="M146.855 51.025C146.195 50.8625 145.7 50.5375 145.205 50.05L145.7 49.2375C146.03 49.5625 146.525 49.8875 147.185 50.05C147.845 50.2125 148.34 50.375 149 50.375C149.825 50.375 150.65 50.2125 150.98 49.8875C151.475 49.5625 151.64 49.075 151.64 48.5875C151.64 48.2625 151.475 47.9375 151.31 47.6125C151.145 47.45 150.815 47.125 150.485 47.125C150.155 46.9625 149.66 46.8 149 46.6375C148.175 46.475 147.68 46.3125 147.185 46.15C146.69 45.9875 146.36 45.6625 146.03 45.3375C145.7 45.0125 145.535 44.525 145.535 43.875C145.535 43.3875 145.7 42.9 145.865 42.575C146.195 42.0875 146.525 41.7625 147.185 41.6C147.845 41.4375 148.505 41.275 149.33 41.275C149.825 41.275 150.485 41.275 150.98 41.4375C151.475 41.6 151.97 41.7625 152.465 42.0875L152.135 42.9C151.64 42.575 151.31 42.4125 150.815 42.25C150.32 42.0875 149.825 42.0875 149.33 42.0875C148.505 42.0875 147.845 42.25 147.35 42.575C146.855 42.9 146.69 43.3875 146.69 43.875C146.69 44.2 146.855 44.525 147.02 44.85C147.185 45.0125 147.515 45.3375 148.01 45.3375C148.34 45.5 148.835 45.6625 149.495 45.825C150.155 45.9875 150.815 46.15 151.31 46.3125C151.805 46.475 152.135 46.8 152.465 47.125C152.795 47.45 152.96 47.9375 152.96 48.5875C152.96 49.075 152.795 49.5625 152.63 49.8875C152.3 50.375 151.97 50.7 151.31 50.8625C150.815 51.025 149.99 51.1875 149.165 51.1875C148.34 51.35 147.515 51.1875 146.855 51.025Z" fill="#EBE7E5"/>
<path d="M155.105 41.275H156.095V51.1875H155.105V41.275Z" fill="#EBE7E5"/>
<path d="M169.956 41.275V51.1875H168.966V43.225L165.005 49.8875H164.51L160.55 43.225V51.1875H159.56V41.275H160.385L164.84 48.5875L169.131 41.275H169.956Z" fill="#EBE7E5"/>
<path d="M180.021 42.25C180.681 42.9 181.176 43.7125 181.176 44.6875C181.176 45.825 180.846 46.6375 180.021 47.125C179.361 47.775 178.206 48.1 177.051 48.1H174.411V51.1875H173.256V41.275H177.051C178.371 41.275 179.361 41.6 180.021 42.25ZM179.361 46.6375C179.856 46.15 180.186 45.6625 180.186 44.85C180.186 44.0375 179.856 43.3875 179.361 43.0625C178.866 42.575 178.041 42.4125 177.051 42.4125H174.411V47.45H177.051C178.041 47.2875 178.701 46.9625 179.361 46.6375Z" fill="#EBE7E5"/>
<path d="M183.486 41.275H184.476V50.375H190.086V51.35H183.321V41.275H183.486Z" fill="#EBE7E5"/>
<path d="M199.162 50.375V51.35H192.066V41.4375H198.997V42.25H193.056V45.825H198.337V46.8H193.056V50.375H199.162Z" fill="#EBE7E5"/>
<path d="M128.374 0H136.294V33.9625H128.374V0Z" fill="#EBE7E5"/>
<path d="M112.369 0V20.6375L95.208 0H88.6078H87.4528V18.6875C87.4528 21.775 86.7928 24.05 85.4727 25.5125C84.1527 26.975 82.3376 27.625 79.8626 27.625C74.7474 27.625 72.2723 24.7 72.2723 18.525V0H64.3521V19.0125C64.3521 23.8875 65.6721 27.7875 68.4772 30.55C71.1173 33.15 75.0774 34.6125 80.0276 34.6125C84.9777 34.6125 88.7728 33.3125 91.5779 30.55C94.218 27.95 95.7031 24.05 95.7031 19.0125V11.8625L97.0231 13.325L114.019 33.9625H120.619V0H112.369Z" fill="#EBE7E5"/>
<path d="M47.6865 0H5.11516C2.31007 0 0 2.275 0 4.875V46.9625C0 49.725 2.31007 52 5.11516 52H47.6865C50.4916 52 52.8017 49.725 52.8017 46.9625V4.875C52.8017 2.275 50.4916 0 47.6865 0ZM49.0066 26H25.9058V48.75H24.7508C24.7508 36.725 14.8505 27.1375 2.80509 27.1375V26H25.9058V3.25H26.8959C26.8959 15.275 36.7962 24.8625 48.8416 24.8625V26H49.0066Z" fill="#EBE7E5"/>
<path d="M148.505 32.825C146.195 32.0125 144.38 31.0375 143.225 29.7375L144.545 26.975C145.7 28.1125 147.35 29.0875 149.495 29.9C151.475 30.55 153.62 31.0375 155.765 31.0375C158.735 31.0375 161.045 30.55 162.53 29.4125C164.015 28.4375 164.84 26.975 164.84 25.1875C164.84 23.8875 164.51 22.75 163.685 21.9375C162.86 21.125 161.87 20.6375 160.715 20.15C159.56 19.825 157.91 19.3375 155.765 18.85C153.29 18.2 151.145 17.7125 149.66 17.0625C148.175 16.575 146.855 15.6 145.7 14.4625C144.71 13.325 144.05 11.7 144.05 9.5875C144.05 7.9625 144.545 6.3375 145.37 5.0375C146.195 3.7375 147.68 2.6 149.495 1.7875C151.31 0.975 153.62 0 156.425 0C158.405 0 160.22 0.1625 162.2 0.8125C164.18 1.4625 165.665 1.95 166.985 2.925L165.83 5.6875C164.51 4.875 162.86 4.0625 161.21 3.575C159.56 3.0875 158.075 2.925 156.425 2.925C153.455 2.925 151.145 3.4125 149.66 4.55C148.175 5.6875 147.35 7.15 147.35 8.9375C147.35 10.2375 147.68 11.375 148.505 12.1875C149.33 13 150.32 13.65 151.64 13.975C152.795 14.3 154.61 14.7875 156.59 15.275C159.065 15.925 161.045 16.4125 162.695 17.0625C164.18 17.55 165.5 18.525 166.655 19.6625C167.645 20.8 168.305 22.425 168.305 24.5375C168.305 26.1625 167.81 27.7875 166.985 29.0875C166.16 30.3875 164.675 31.525 162.695 32.3375C160.88 33.15 158.405 33.475 155.6 33.475C153.29 34.125 150.815 33.6375 148.505 32.825Z" fill="#EBE7E5"/>
<path d="M182.496 3.24998H170.45V0.162476H198.006V3.24998H185.961V33.8H182.331L182.496 3.24998Z" fill="#EBE7E5"/>
<path d="M227.872 30.7125V33.8H203.781V0.162476H227.212V3.24998H207.412V15.1125H225.067V18.0375H207.412V30.55H227.872V30.7125Z" fill="#EBE7E5"/>
<path d="M257.243 33.8L246.188 19.0125L235.297 33.8H231.172L244.208 16.575L231.997 0.325012H236.123L246.353 13.975L256.583 0.325012H260.378L248.333 16.575L261.368 33.9625H257.243V33.8Z" fill="#EBE7E5"/>
</g>
<defs>
<clipPath id="clip0_87_381">
<rect width="261.368" height="52" fill="white"/>
</clipPath>
</defs>
</svg>
